# xmcd
#
# Track frame offsets:
#	150
#	11773
#	26000
#	39153
#	51668
#	65756
#	78683
#	91319
#	104041
#	116006
#	126063
#	138705
#	152738
#	169491
#	180569
#	190767
#	199729
#	213495
#	225464
#	236038
#	249544
#	263239
#	276170
#	294623
#	308702
#	319919
#
# Disc length: 4445 seconds
#
# Revision: 1
# Processed by: cddbd v1.5.2PL0 Copyright (c) Steve Scherf et al.
# Submitted via: audiograbber 1.83.01
#
DISCID=8c115b1a
DTITLE=Various Artist - A Complete Introduction To Chess [CD 2)
DYEAR=2010
DGENRE=Blues
TTITLE0=Chuck Berry - Rock And Roll Music
TTITLE1=Bo Diddley - You Can't Judge A Book By The Cover
TTITLE2=Eddie Fontaine - Nothin' Shakin' (But The Leaves On The Trees)
TTITLE3=Jimmy McCracklin - The Walk
TTITLE4=Howlin' Wolf - Smokestack Lightnin'
TTITLE5=Muddy Waters - Forty Days And Forty Nights
TTITLE6=Etta James - Something's Got A Hold On Me
TTITLE7=Bobby Charles - See You Later, Alligator
TTITLE8=Chuck Berry - Johnny B. Goode
TTITLE9=Dale Hawkins - Susie Q
TTITLE10=Jimmy Rogers - Walking By Myself
TTITLE11=Etta James - I Just Want To Make Love To You
TTITLE12=Sonny Boy Williamson - Nine Below Zero
TTITLE13=Howlin' Wolf - The Red Rooster
TTITLE14=Elmore James - Talk To Me Baby
TTITLE15=The Marathons - Peanut Butter
TTITLE16=The Sensations - Let Me In
TTITLE17=The Vibrations - The Watsui
TTITLE18=Clarence 'Frogman' Henry - (I Don't Know Why) But I Do
TTITLE19=Etta James - At Last
TTITLE20=The Corsairs - Smokey Places
TTITLE21=Dave 'Baby' Cortez - Rinky Dink
TTITLE22=Harvey and The Moonglows - Ten Commandments Of Love
TTITLE23=Andre Williams - Cadillac Jack
TTITLE24=Clarence 'Frogman' Henry - You Always Hurt The One You Love
TTITLE25=Fontella Bass - Don't Mess Up A Good Thing
EXTD=
EXTT0=
EXTT1=
EXTT2=
EXTT3=
EXTT4=
EXTT5=
EXTT6=
EXTT7=
EXTT8=
EXTT9=
EXTT10=
EXTT11=
EXTT12=
EXTT13=
EXTT14=
EXTT15=
EXTT16=
EXTT17=
EXTT18=
EXTT19=
EXTT20=
EXTT21=
EXTT22=
EXTT23=
EXTT24=
EXTT25=
PLAYORDER=
